<svg width="156" height="40" viewBox="0 0 156 40" fill="none" xmlns="http://www.w3.org/2000/svg">
<path fill-rule="evenodd" clip-rule="evenodd" d="M82.4631 36.5801H87.6117V13.7607H82.4631V36.5801Z" fill="#1A1919"/>
<path fill-rule="evenodd" clip-rule="evenodd" d="M102.162 34.3475L102.757 34.1651C103.292 35.3576 104.333 36.1814 105.643 36.1814C107.22 36.1814 108.261 35.3256 108.261 33.7381C108.261 32.1807 106.982 31.2948 105.584 30.7437C104.126 30.1324 102.519 29.3687 102.519 27.5066C102.519 26.1016 103.589 25.0332 105.524 25.0332C106.892 25.0332 108.054 25.7649 108.411 26.8953L107.845 27.0778C107.459 26.1317 106.685 25.6125 105.494 25.6125C104.036 25.6125 103.144 26.3442 103.144 27.5668C103.144 29.0339 104.512 29.6452 105.852 30.2245C107.25 30.8057 108.886 31.7218 108.886 33.8284C108.886 35.7545 107.548 36.8228 105.643 36.8228C103.946 36.7607 102.667 35.6322 102.162 34.3475" fill="#1A1919"/>
<path fill-rule="evenodd" clip-rule="evenodd" d="M111.059 32.394C111.059 29.646 112.428 28.0566 114.302 28.0566C116.028 28.0566 117.219 29.3695 117.219 32.394V32.5784H111.684C111.774 35.0518 112.756 36.1822 114.361 36.1822C114.987 36.1822 115.671 35.9678 116.266 35.4806L116.594 35.9076C116.028 36.3966 115.194 36.7615 114.302 36.7615C112.25 36.7615 111.059 35.0819 111.059 32.394ZM116.653 32.0291C116.624 29.2473 115.284 28.5758 114.331 28.5758C112.904 28.5758 111.832 29.6159 111.713 32.0291H116.653V32.0291Z" fill="#1A1919"/>
<path fill-rule="evenodd" clip-rule="evenodd" d="M121.413 39.4812C123.795 39.3589 124.687 38.473 124.687 36.8554V35.1739C124.182 36.2441 123.289 36.7313 122.278 36.7313C120.611 36.7313 119.181 35.266 119.181 32.3638C119.181 29.6458 120.462 28.0264 122.337 28.0264C123.527 28.0264 124.359 28.758 124.687 29.4314V28.2389H125.253V36.9156C125.253 39.2968 123.467 39.878 121.712 40.0003L121.413 39.4812ZM124.687 34.3801V30.2252C124.152 29.1869 123.258 28.6377 122.337 28.6377C120.7 28.6377 119.777 29.9806 119.777 32.3939C119.777 34.8071 120.907 36.1519 122.278 36.1519C123.408 36.1519 124.27 35.2961 124.687 34.3801V34.3801Z" fill="#1A1919"/>
<path fill-rule="evenodd" clip-rule="evenodd" d="M133.286 35.1431C132.751 36.3639 131.769 36.7306 130.906 36.7306C129.211 36.7306 128.288 35.6322 128.288 33.3111V28.2383H128.854V33.4315C128.854 35.4479 129.686 36.1814 130.935 36.1814C132.275 36.1814 133.286 35.3576 133.286 33.0346V28.2383H133.852V36.5482H133.286V35.1431" fill="#1A1919"/>
<path fill-rule="evenodd" clip-rule="evenodd" d="M136.976 28.2391H137.542V30.0128C138.048 28.6378 138.971 28.0566 139.922 28.0566C140.457 28.0566 140.815 28.209 140.994 28.3933L140.904 28.9726C140.696 28.8504 140.34 28.698 139.833 28.698C138.852 28.698 137.542 29.5539 137.542 31.9351V36.549H136.976V28.2391" fill="#1A1919"/>
<path fill-rule="evenodd" clip-rule="evenodd" d="M142.333 32.426C142.333 29.7062 143.612 28.0566 145.516 28.0566C147.422 28.0566 148.701 29.646 148.701 32.394C148.701 35.1139 147.422 36.7615 145.516 36.7615C143.612 36.7615 142.333 35.174 142.333 32.426ZM148.105 32.394C148.105 30.0429 147.213 28.6378 145.516 28.6378C143.851 28.6378 142.927 29.9808 142.927 32.394C142.927 34.7471 143.821 36.1521 145.516 36.1521C147.183 36.1521 148.105 34.7772 148.105 32.394V32.394Z" fill="#1A1919"/>
<path fill-rule="evenodd" clip-rule="evenodd" d="M150.843 35.5107L151.29 35.1139C151.766 35.6631 152.51 36.2123 153.373 36.2123C154.503 36.2123 155.218 35.6932 155.218 34.6248C155.218 33.4643 154.146 32.9132 153.016 32.4542C151.676 31.9671 150.813 31.3558 150.813 30.1031C150.813 28.9426 151.706 28.0566 153.195 28.0566C154.087 28.0566 154.949 28.4535 155.515 29.0968L155.099 29.4617C154.652 29.0347 154.027 28.6059 153.195 28.6059C152.063 28.6059 151.409 29.2172 151.409 30.1031C151.409 31.1714 152.33 31.5382 153.373 31.9671C154.742 32.5464 155.813 33.0354 155.813 34.5947C155.813 35.8455 154.949 36.7314 153.402 36.7314C152.301 36.7615 151.438 36.1822 150.843 35.5107" fill="#1A1919"/>
<path fill-rule="evenodd" clip-rule="evenodd" d="M85.0228 5.57324C83.4746 5.57324 82.1957 6.88801 82.1957 8.4755C82.1957 10.0649 83.4746 11.3778 85.0228 11.3778C86.5692 11.3778 87.8482 10.0649 87.8482 8.4755C87.8482 6.85603 86.5692 5.57324 85.0228 5.57324V5.57324ZM71.8398 18.9522C73.5658 18.9522 74.9638 19.6256 76.4516 21.1529L79.9933 17.3328C78.2674 15.5929 75.7975 13.791 71.8985 13.791C65.7696 13.791 60.8006 18.9823 60.8006 25.3681V25.4282C60.8006 31.814 65.7696 37.0072 71.8692 37.0072C74.9638 37.0072 77.5528 35.8768 79.8138 33.5839L76.1548 29.95C74.8154 31.2328 73.476 31.814 71.9296 31.814C68.6554 31.814 65.9785 28.9117 65.9785 25.3681V25.306C65.9473 21.7623 68.5363 18.9522 71.8398 18.9522V18.9522ZM55.9195 20.9987C57.3779 19.4732 58.0614 17.487 58.0614 15.5007C58.0614 10.8887 55.6831 7.10055 48.5997 7.10055H38.5718V36.5783H48.7792C56.3372 36.5783 58.9262 32.6378 58.9262 27.6891C58.9555 25.0615 58.032 22.4959 55.9195 20.9987V20.9987ZM43.7497 12.3239H48.7187C51.9325 12.3239 52.4675 13.8813 52.4675 15.5007C52.4675 17.06 51.8134 18.7397 49.0174 18.7397H43.7204V12.3239H43.7497ZM48.9569 31.355H43.7497V23.963H49.0467C52.2293 23.963 53.4203 25.1536 53.4203 27.6891C53.391 29.5211 52.6471 31.355 48.9569 31.355V31.355Z" fill="#1A1919"/>
<path fill-rule="evenodd" clip-rule="evenodd" d="M24.0513 22.9856C24.0513 22.9856 28.3955 24.1762 27.0269 30.4397C26.9371 30.7745 26.9371 31.1112 26.9664 31.478C27.1166 33.342 28.6924 34.6849 30.5081 34.5326C32.3239 34.3802 33.6321 32.7608 33.4837 30.8987C33.1869 26.5293 25.1818 21.2138 24.1099 21.3361C24.1099 21.3361 23.4851 21.3661 23.4558 22.1919C23.4558 22.8634 24.0513 22.9856 24.0513 22.9856" fill="#188C44"/>
<path fill-rule="evenodd" clip-rule="evenodd" d="M22.7118 25.0619C22.7118 25.0619 25.5389 25.8255 24.6759 29.9203C24.6759 29.9203 23.7543 33.7687 17.7427 34.8069C10.9286 35.9675 11.0477 33.4019 11.0477 33.4019C10.9872 32.1191 10.5109 30.5918 17.2663 26.3766C17.2663 26.3766 20.6578 24.238 22.7118 25.0619" fill="#F9D339"/>
<path fill-rule="evenodd" clip-rule="evenodd" d="M0.00847464 35.5399C0.0671065 37.5261 1.49442 39.1757 3.39996 39.4804C3.66747 39.5105 3.93497 39.5425 4.20248 39.5425C5.27434 39.5105 6.28574 39.0215 7.00032 38.2277C7.74421 37.4039 8.1015 36.3637 8.07218 35.2653C8.07218 32.2708 9.3804 30.042 12.0298 27.9654C14.4099 26.1616 17.8307 23.9628 22.622 21.2129C28.6043 17.9457 32.4722 14.0955 33.3352 10.9807L33.3645 10.8885C33.4836 10.4917 33.5129 10.0948 33.4836 9.69791C33.4231 7.71166 31.9958 6.06209 30.0921 5.75738C29.8228 5.72541 29.5552 5.69531 29.2877 5.69531C28.2159 5.72541 27.2045 6.21445 26.4899 7.0082C25.746 7.83392 25.3906 8.87219 25.4199 9.97065C25.4199 13.1174 23.5748 15.1958 21.0756 17.6392C15.7493 21.9164 10.8389 24.023 10.8389 24.023C4.85843 27.292 0.988725 31.1404 0.125738 34.2571L0.0964224 34.3474C0.0377905 34.7461 -0.0226735 35.143 0.00847464 35.5399" fill="#DB3942"/>
<path fill-rule="evenodd" clip-rule="evenodd" d="M6.34612 6.09264C6.67226 11.6526 14.1716 18.0986 18.8145 20.6942C20.0641 21.3977 21.6106 21.5801 22.2647 21.3657C24.3791 20.3895 22.1163 19.5337 22.1163 19.5337C22.1163 19.5337 14.8258 17.4873 17.1765 6.94846C17.2956 6.39735 17.3561 5.81803 17.3249 5.20673C17.0886 2.12202 14.4391 -0.199038 11.4031 0.0135063C8.39824 0.258026 6.10793 2.97784 6.34612 6.09264" fill="#3366A1"/>
</svg>
