<svg width="89" height="30" viewBox="0 0 89 30" fill="none" xmlns="http://www.w3.org/2000/svg">
<path d="M21.2804 26.2886C21.2804 27.1807 21.1975 28.0728 20.9961 29.0065H0.2429C0.0829414 28.5604 0 27.9955 0 27.3829C0 26.2054 0.4858 24.9922 1.29152 23.8979L11.7481 9.47027L12.5538 8.33437L0.284371 8.376C0.0829416 7.48394 0 6.67513 0 5.69981C0 4.76612 0.0829416 3.87405 0.284371 2.98199H20.6761C20.8361 3.42802 20.919 3.993 20.919 4.64123C20.919 5.77712 20.3918 6.99033 19.6275 8.12622L9.40794 22.2387L8.27638 23.6184H20.9961C21.1975 24.5461 21.2804 25.3609 21.2804 26.2886Z" fill="#FF9015"/>
<path d="M40.7329 20.8898H27.9641C28.3257 23.6073 29.8254 24.8203 32.6887 24.8203C35.1132 24.8203 36.8501 23.8451 38.3439 22.8759C39.5947 23.8511 40.3654 25.4685 40.5254 26.9669C38.83 28.2632 36.2039 29.6844 32.0425 29.6844C26.1027 29.6844 21.8227 25.9977 21.8227 19.5519C21.8227 13.4748 26.1027 9.21722 31.841 9.21722C37.2532 9.21722 40.9344 12.6601 40.9344 18.0534C40.9344 19.0227 40.8929 19.9146 40.7329 20.8898ZM35.2377 17.4826C35.2377 15.6154 34.3485 13.9148 31.8824 13.7959C29.5824 13.7959 28.2486 15.2943 27.9641 17.4826H35.2377Z" fill="#FF9015"/>
<path d="M61.537 17.2728V28.8993C60.5345 29.0592 59.5261 29.1421 58.5237 29.1421C57.5212 29.1421 56.5128 29.0592 55.5103 28.8993V18.2442C55.5103 15.5019 54.0243 14.5306 51.8955 14.5306C50.4862 14.5306 49.3658 14.9333 48.6817 15.3361V28.8993C47.6792 29.0592 46.6709 29.1421 45.6684 29.1421C44.6659 29.1421 43.6988 29.0592 42.6964 28.8993V12.2681C44.1824 10.9354 47.6026 9.0816 52.3437 9.0816C58.6829 9.07568 61.537 12.5524 61.537 17.2728Z" fill="#FF9015"/>
<path d="M63.4347 3.59902C63.4347 1.61867 65.0645 0 67.0943 0C69.0884 0 70.754 1.61867 70.754 3.59902C70.754 5.57937 69.0884 7.23362 67.0943 7.23362C65.1063 7.23955 63.4347 5.57937 63.4347 3.59902ZM64.0436 28.8989V9.70609C65.0227 9.546 66.0376 9.463 67.0526 9.463C68.0317 9.463 69.0466 9.546 70.1033 9.70609V28.8989C69.1242 29.059 68.1093 29.142 67.0526 29.142C66.0794 29.142 65.0645 29.059 64.0436 28.8989Z" fill="#FF9015"/>
<path d="M88.5102 27.4053C87.1402 28.4977 85.2092 29.5485 82.3097 29.5485C77.9221 29.5485 74.6211 27.6843 74.6211 22.9941V14.9852H71.3614C71.2433 14.2193 71.1606 13.3644 71.1606 12.4739C71.1606 11.6664 71.2433 10.8531 71.3614 10.0456H74.6211V4.98736C75.6663 4.82706 76.6761 4.74394 77.68 4.74394C78.6485 4.74394 79.6523 4.82706 80.5795 4.98736V10.0456H87.2583C87.4178 10.8115 87.5418 11.6249 87.5418 12.4323C87.5418 13.3228 87.4237 14.1303 87.2583 14.9792H80.5795V21.4921C80.5795 23.6769 81.5834 24.4071 83.3549 24.4071C84.4828 24.4071 85.3686 23.8431 86.0123 23.2732C87.1815 23.9678 88.3095 25.7845 88.5102 27.4053Z" fill="#FF9015"/>
</svg>
